LET OP: Speel de iso niet af met VLC, dit zorgt voor problemen bij de ondertitelingen (grijs en vergedrukt en niet meer leesbaar). Met andere players gaat het wel goed. Als je de iso brand, geeft dit geen problemen.
REMARK: Do not play the iso with VLC when using subs, the will not be readable! If you burn your iso to dvd, no problems whatsoever will occur.

For English, please scroll down!

************************************************************
Legends of the Guardians: The Owls of Ga Hoole (2010)

Verenigde Staten / Australië. Animatie / Fantasy, 90 minuten. Geregisseerd door Zack Snyder, met de stemmen van Jim Sturgess, Hugo Weaving en Abbie Cornish.

Soren, een jonge uil, wordt gekidnapt door de uilen van St. Aggie's, een weeshuis waar jonge uilen gehersenspoeld worden tot meedogenloze soldaten. Soren en een paar andere uilen weten uit het weeshuis te ontsnappen en vluchten naar het eiland 'Ga'Hoole', om een wijze groep uilen bij te staan in hun strijd tegen de soldaten van St. Aggie's.

Taal: Engels, Frans & Spaans in 5.1 en 2.0
Ondertitelingen: Engels, Spaans en Nederlands (custom) door Jürgen van ~ Just4fun-Team vertaalcrew ~ Super werk!
Categorie : Beeld 
Formaat : Widescreen/ NTSC 
Bron : R1
Genre : Avontuur, Animatie
Weblink : imdb.com/title/tt1219342/

************************************************************

USA/ Australia
Animation / Fantasy, 90 minutes. Directed by Zack Snyder, with voices of Jim Sturgess, Hugo Weaving and Abbie Cornish.

When a young owl is abducted by an evil Owl army, he must escape with newfound friends to seek out the legendary Guardians to stop the menace.

Subtitles: English and Dutch (custom) by Jürgen of ~ Just4fun-Team vertaalcrew ~ Excellent work!
Category : Movie 
Format : Widescreen/ NTSC
Source : R1
Genre : Adventure, Animation.
Weblink : http://www.moviemeter.nl/film/64306 


Video and Audio information:
******************************
Video
ID                               : 224 (0xE0)
Format                           : MPEG Video
Format version                   : Version 2
Format profile                   : Main@Main
Format settings, BVOP            : Yes
Format settings, Matrix          : Default
Format settings, GOP             : M=3, N=15
Duration                         : 14mn 2s
Bit rate mode                    : Variable
Nominal bit rate                 : 7 500 Kbps
Width                            : 720 pixels
Height                           : 480 pixels
Display aspect ratio             : 16:9
Frame rate                       : 29.970 fps
Standard                         : NTSC
Color space                      : YUV
Chroma subsampling               : 4:2:0
Bit depth                        : 8 bits
Scan type                        : Interlaced
Scan order                       : Top Field First
Bits/(Pixel*Frame)               : 0.724

Audio #1
ID                               : 131 (0x83)
Format                           : AC-3
Format/Info                      : Audio Coding 3
Mode extension                   : CM (complete main)
Bit rate mode                    : Constant
Bit rate                         : 192 Kbps
Channel(s)                       : 2 channels
Channel positions                : Front: L R
Sampling rate                    : 48.0 KHz
Bit depth                        : 16 bits
Video delay                      : -67ms
Stream size                      : 403 ?iB

Audio #2
ID                               : 128 (0x80)
Format                           : AC-3
Format/Info                      : Audio Coding 3
Mode extension                   : CM (complete main)
Duration                         : 6s 784ms
Bit rate mode                    : Constant
Bit rate                         : 384 Kbps
Channel(s)                       : 6 channels
Channel positions                : Front: L C R, Side: L R, LFE
Sampling rate                    : 48.0 KHz
Bit depth                        : 16 bits
Stream size                      : 318 KiB (0%)

Audio #3
ID                               : 129 (0x81)
Format                           : AC-3
Format/Info                      : Audio Coding 3
Mode extension                   : CM (complete main)
Duration                         : 6s 784ms
Bit rate mode                    : Constant
Bit rate                         : 384 Kbps
Channel(s)                       : 6 channels
Channel positions                : Front: L C R, Side: L R, LFE
Sampling rate                    : 48.0 KHz
Bit depth                        : 16 bits
Stream size                      : 318 KiB (0%)

Audio #4
ID                               : 130 (0x82)
Format                           : AC-3
Format/Info                      : Audio Coding 3
Mode extension                   : CM (complete main)
Duration                         : 6s 784ms
Bit rate mode                    : Constant
Bit rate                         : 384 Kbps
Channel(s)                       : 6 channels
Channel positions                : Front: L C R, Side: L R, LFE
Sampling rate                    : 48.0 KHz
Bit depth                        : 16 bits
Stream size                      : 318 KiB (0%)

******************************

Hornigold TBS